<svg xmlns="http://www.w3.org/2000/svg" xmlns:xlink="http://www.w3.org/1999/xlink" width="1080" zoomAndPan="magnify" viewBox="0 0 810 809.999993" height="1080" preserveAspectRatio="xMidYMid meet" version="1.0"><defs><clipPath id="da936ce1b3"><path d="M 243 253.125 L 567 253.125 L 567 556.875 L 243 556.875 Z M 243 253.125 " clip-rule="nonzero"/></clipPath><clipPath id="46f3cf002f"><path d="M 363.792969 296.726562 L 446.292969 296.726562 L 446.292969 379.226562 L 363.792969 379.226562 Z M 363.792969 296.726562 " clip-rule="nonzero"/></clipPath></defs><g clip-path="url(#da936ce1b3)"><path fill="#ff751f" d="M 546.113281 364.144531 L 545.929688 307.375 C 556.222656 303.179688 563.476562 293.089844 563.476562 281.289062 C 563.476562 265.726562 550.863281 253.117188 535.304688 253.117188 C 519.746094 253.117188 507.128906 265.726562 507.128906 281.289062 C 507.128906 293.132812 514.445312 303.253906 524.800781 307.421875 L 524.914062 343.886719 C 506.449219 311.246094 471.433594 289.199219 431.253906 289.199219 L 378.746094 289.199219 C 338.796875 289.199219 303.953125 310.996094 285.402344 343.332031 L 285.320312 317.941406 C 295.609375 313.742188 302.871094 303.65625 302.871094 291.855469 C 302.871094 276.296875 290.253906 263.679688 274.695312 263.679688 C 259.136719 263.679688 246.519531 276.296875 246.519531 291.855469 C 246.519531 303.699219 253.835938 313.816406 264.191406 317.984375 L 264.339844 364.027344 C 252.089844 367.082031 243 378.128906 243 391.332031 L 243 437.113281 C 243 452.671875 255.613281 465.285156 271.171875 465.285156 C 271.824219 465.285156 272.46875 465.234375 273.109375 465.1875 C 282.820312 517.351562 328.546875 556.851562 383.523438 556.851562 L 426.472656 556.851562 C 481.453125 556.851562 527.179688 517.351562 536.894531 465.1875 C 537.53125 465.234375 538.175781 465.285156 538.824219 465.285156 C 554.382812 465.285156 567 452.671875 567 437.113281 L 567 391.332031 C 567 378.296875 558.136719 367.359375 546.113281 364.144531 Z M 434.371094 510.128906 L 375.628906 510.128906 C 370.765625 510.128906 366.824219 506.1875 366.824219 501.324219 C 366.824219 496.460938 370.765625 492.519531 375.628906 492.519531 L 434.371094 492.519531 C 439.234375 492.519531 443.175781 496.460938 443.175781 501.324219 C 443.175781 506.1875 439.234375 510.128906 434.371094 510.128906 Z M 514.175781 430.070312 C 514.175781 445.628906 501.558594 458.242188 486 458.242188 L 324 458.242188 C 308.441406 458.242188 295.828125 445.628906 295.828125 430.070312 L 295.828125 412.460938 C 295.828125 396.902344 308.441406 384.285156 324 384.285156 L 486 384.285156 C 501.558594 384.285156 514.175781 396.902344 514.175781 412.460938 Z M 514.175781 430.070312 " fill-opacity="1" fill-rule="nonzero"/></g><path fill="#000000" d="M 397.320312 345.707031 C 397.085938 345.707031 396.871094 345.628906 396.695312 345.492188 C 396.480469 345.316406 396.363281 345.0625 396.363281 344.765625 C 396.363281 344.765625 396.363281 344.609375 396.382812 344.53125 L 398.695312 337.359375 C 398.890625 336.769531 399.085938 336.164062 399.300781 335.515625 C 399.496094 334.929688 399.695312 334.4375 399.890625 334.027344 C 400.085938 333.59375 400.300781 333.242188 400.496094 332.96875 C 400.773438 332.613281 401.125 332.417969 401.476562 332.417969 C 401.828125 332.417969 402.183594 332.613281 402.457031 332.949219 C 402.671875 333.203125 402.867188 333.554688 403.046875 334.007812 C 403.222656 334.398438 403.398438 334.90625 403.59375 335.515625 C 403.75 336.003906 403.925781 336.554688 404.125 337.144531 L 404.222656 337.417969 L 405.261719 340.496094 C 405.496094 340.554688 405.691406 340.691406 405.828125 340.886719 C 405.964844 341.082031 406.023438 341.277344 406.023438 341.492188 C 406.023438 341.730469 405.945312 341.925781 405.789062 342.121094 C 405.769531 342.140625 405.730469 342.179688 405.710938 342.199219 L 406.339844 344.492188 C 406.359375 344.550781 406.359375 344.609375 406.359375 344.6875 C 406.300781 345.277344 405.886719 345.648438 405.28125 345.648438 C 404.847656 345.648438 404.515625 345.433594 404.339844 345.0625 C 404.339844 345.042969 404.339844 345.042969 404.320312 345.023438 L 403.652344 342.414062 L 399.183594 342.414062 L 398.398438 344.945312 C 398.378906 345.003906 398.359375 345.042969 398.320312 345.101562 C 397.988281 345.609375 397.597656 345.707031 397.320312 345.707031 Z M 401.496094 332.832031 C 401.261719 332.832031 401.027344 332.96875 400.832031 333.222656 C 400.632812 333.457031 400.4375 333.789062 400.261719 334.203125 C 400.085938 334.59375 399.890625 335.085938 399.695312 335.652344 C 399.476562 336.300781 399.28125 336.886719 399.085938 337.476562 L 396.773438 344.648438 C 396.773438 344.667969 396.773438 344.746094 396.773438 344.765625 C 396.773438 344.945312 396.832031 345.082031 396.949219 345.179688 C 397.066406 345.257812 397.183594 345.296875 397.320312 345.296875 C 397.597656 345.296875 397.8125 345.160156 398.007812 344.886719 C 398.007812 344.886719 398.027344 344.867188 398.027344 344.847656 L 398.851562 342.179688 C 398.871094 342.101562 398.949219 342.042969 399.046875 342.042969 L 403.808594 342.042969 C 403.90625 342.042969 403.984375 342.101562 404.003906 342.199219 L 404.710938 344.925781 C 404.828125 345.160156 405.023438 345.277344 405.300781 345.277344 C 405.710938 345.277344 405.964844 345.0625 405.984375 344.667969 C 405.984375 344.648438 405.984375 344.628906 405.984375 344.589844 L 405.320312 342.179688 C 405.300781 342.101562 405.339844 342.003906 405.398438 341.964844 C 405.4375 341.945312 405.476562 341.90625 405.515625 341.867188 C 405.613281 341.769531 405.652344 341.632812 405.652344 341.511719 C 405.652344 341.375 405.613281 341.238281 405.535156 341.121094 C 405.457031 341.003906 405.339844 340.925781 405.183594 340.886719 C 405.164062 340.886719 405.164062 340.886719 405.144531 340.886719 C 405.0625 340.886719 404.984375 340.828125 404.964844 340.75 L 403.808594 337.28125 C 403.613281 336.691406 403.4375 336.144531 403.28125 335.652344 C 403.085938 335.046875 402.90625 334.574219 402.730469 334.183594 C 402.554688 333.769531 402.378906 333.457031 402.183594 333.222656 C 401.96875 332.96875 401.730469 332.832031 401.496094 332.832031 Z M 403.203125 340.75 L 399.636719 340.75 C 399.574219 340.75 399.515625 340.710938 399.476562 340.671875 C 399.4375 340.613281 399.4375 340.554688 399.457031 340.496094 L 400.753906 336.59375 L 401.242188 335.164062 C 401.261719 335.085938 401.339844 335.027344 401.417969 335.027344 C 401.496094 335.027344 401.574219 335.085938 401.59375 335.164062 L 401.691406 335.457031 C 401.808594 335.828125 401.949219 336.242188 402.105469 336.691406 C 402.261719 337.144531 402.417969 337.613281 402.59375 338.101562 L 403.085938 339.574219 C 403.183594 339.886719 403.28125 340.179688 403.378906 340.476562 C 403.398438 340.535156 403.378906 340.59375 403.339844 340.652344 C 403.320312 340.730469 403.261719 340.75 403.203125 340.75 Z M 399.910156 340.355469 L 402.949219 340.355469 C 402.886719 340.140625 402.808594 339.925781 402.730469 339.710938 L 402.242188 338.242188 C 402.085938 337.75 401.910156 337.28125 401.75 336.828125 C 401.632812 336.476562 401.515625 336.144531 401.417969 335.847656 L 401.105469 336.730469 Z M 399.910156 340.355469 " fill-opacity="1" fill-rule="nonzero"/><path fill="#000000" d="M 412.648438 345.746094 L 407.554688 345.648438 C 407.496094 345.648438 407.4375 345.628906 407.398438 345.628906 C 406.632812 345.375 406.554688 344.828125 406.574219 344.609375 C 406.574219 344.101562 406.828125 343.867188 406.984375 343.789062 C 407.179688 343.6875 407.359375 343.628906 407.574219 343.628906 C 407.808594 343.628906 408.296875 343.628906 409.179688 343.648438 C 409.179688 343.414062 409.199219 343.140625 409.199219 342.828125 C 409.21875 342.238281 409.257812 341.335938 409.296875 340.121094 L 409.355469 338.691406 C 409.375 338.179688 409.394531 337.769531 409.394531 337.476562 L 409.453125 336.003906 C 409.472656 335.554688 409.472656 335.183594 409.472656 334.828125 L 409.472656 334.808594 C 409.472656 334.75 409.472656 334.671875 409.472656 334.613281 C 409.433594 334.613281 409.375 334.613281 409.335938 334.613281 L 409.199219 334.613281 C 408.769531 334.613281 408.4375 334.613281 408.21875 334.632812 C 408.023438 334.632812 407.867188 334.652344 407.730469 334.671875 C 407.457031 334.710938 407.179688 334.652344 406.945312 334.476562 C 406.769531 334.359375 406.476562 334.046875 406.652344 333.359375 C 406.828125 332.632812 407.867188 332.554688 408.847656 332.574219 C 410.691406 332.535156 411.828125 332.515625 412.160156 332.535156 C 412.433594 332.554688 412.667969 332.574219 412.824219 332.613281 C 413.375 332.734375 413.6875 333.105469 413.707031 333.652344 C 413.707031 333.671875 413.707031 333.671875 413.707031 333.691406 C 413.628906 334.339844 413.21875 334.691406 412.609375 334.632812 C 412.355469 334.613281 412.0625 334.59375 411.707031 334.574219 C 411.648438 334.574219 411.589844 334.574219 411.53125 334.574219 C 411.53125 334.710938 411.53125 334.847656 411.53125 335.007812 L 411.472656 337.125 C 411.453125 337.808594 411.433594 338.496094 411.414062 339.238281 C 411.394531 339.964844 411.375 340.671875 411.335938 341.316406 C 411.316406 341.964844 411.296875 342.550781 411.257812 343.082031 C 411.257812 343.277344 411.238281 343.472656 411.21875 343.648438 L 412.570312 343.667969 C 412.945312 343.6875 413.238281 343.808594 413.433594 344.023438 C 413.550781 344.160156 413.6875 344.414062 413.648438 344.785156 C 413.609375 345.394531 413.21875 345.746094 412.648438 345.746094 Z M 407.574219 344.023438 C 407.4375 344.023438 407.296875 344.0625 407.160156 344.121094 C 407.023438 344.199219 406.945312 344.375 406.945312 344.609375 C 406.945312 344.828125 407.023438 345.082031 407.496094 345.257812 C 407.515625 345.257812 407.535156 345.257812 407.554688 345.257812 L 412.648438 345.355469 C 413.003906 345.355469 413.238281 345.160156 413.257812 344.785156 C 413.277344 344.550781 413.199219 344.394531 413.140625 344.316406 C 413.023438 344.179688 412.824219 344.101562 412.570312 344.101562 L 411.023438 344.082031 C 410.964844 344.082031 410.925781 344.0625 410.886719 344.023438 C 410.847656 343.984375 410.828125 343.925781 410.847656 343.867188 C 410.867188 343.648438 410.886719 343.375 410.90625 343.101562 C 410.925781 342.589844 410.964844 342.003906 410.984375 341.355469 C 411.003906 340.691406 411.042969 340.003906 411.0625 339.277344 C 411.082031 338.554688 411.101562 337.847656 411.121094 337.164062 L 411.179688 335.046875 C 411.179688 334.808594 411.199219 334.59375 411.199219 334.417969 C 411.199219 334.320312 411.296875 334.222656 411.394531 334.222656 C 411.492188 334.222656 411.609375 334.222656 411.769531 334.242188 C 412.140625 334.261719 412.433594 334.28125 412.6875 334.300781 C 412.945312 334.320312 413.277344 334.28125 413.355469 333.710938 C 413.335938 333.359375 413.140625 333.125 412.804688 333.046875 C 412.707031 333.027344 412.511719 333.007812 412.179688 332.988281 C 411.964844 332.96875 411.21875 332.96875 408.886719 333.027344 C 408.101562 333.007812 407.179688 333.046875 407.0625 333.496094 C 407.003906 333.730469 406.984375 334.046875 407.199219 334.203125 C 407.359375 334.300781 407.535156 334.359375 407.710938 334.320312 C 407.867188 334.300781 408.042969 334.28125 408.238281 334.28125 C 408.457031 334.28125 408.789062 334.28125 409.21875 334.261719 L 409.355469 334.261719 C 409.492188 334.261719 409.613281 334.261719 409.691406 334.261719 C 409.75 334.261719 409.789062 334.28125 409.828125 334.320312 C 409.867188 334.359375 409.886719 334.398438 409.886719 334.457031 C 409.886719 334.574219 409.886719 334.710938 409.886719 334.847656 L 409.886719 334.867188 C 409.886719 335.203125 409.867188 335.59375 409.867188 336.046875 L 409.808594 337.515625 C 409.808594 337.808594 409.789062 338.222656 409.769531 338.730469 L 409.710938 340.160156 C 409.652344 341.375 409.632812 342.277344 409.613281 342.867188 C 409.59375 343.21875 409.59375 343.53125 409.574219 343.808594 L 409.574219 343.886719 C 409.574219 343.984375 409.472656 344.082031 409.375 344.082031 C 408.394531 344.023438 407.828125 344.023438 407.574219 344.023438 Z M 407.574219 344.023438 " fill-opacity="1" fill-rule="nonzero"/><path fill="#000000" d="M 417.136719 351.3125 L 392.949219 351.3125 C 392.265625 351.3125 391.695312 350.746094 391.695312 350.058594 L 391.695312 325.871094 C 391.695312 325.1875 392.265625 324.617188 392.949219 324.617188 L 417.117188 324.617188 C 417.804688 324.617188 418.375 325.1875 418.375 325.871094 L 418.375 350.058594 C 418.394531 350.746094 417.824219 351.3125 417.136719 351.3125 Z M 392.949219 325.007812 C 392.480469 325.007812 392.089844 325.402344 392.089844 325.871094 L 392.089844 350.058594 C 392.089844 350.53125 392.480469 350.921875 392.949219 350.921875 L 417.117188 350.921875 C 417.589844 350.921875 417.980469 350.53125 417.980469 350.058594 L 417.980469 325.871094 C 417.980469 325.402344 417.589844 325.007812 417.117188 325.007812 Z M 416.058594 349.175781 L 394.027344 349.175781 C 393.910156 349.175781 393.832031 349.097656 393.832031 348.980469 L 393.832031 326.949219 C 393.832031 326.832031 393.910156 326.753906 394.027344 326.753906 L 416.078125 326.753906 C 416.199219 326.753906 416.277344 326.832031 416.277344 326.949219 L 416.277344 349 C 416.257812 349.097656 416.179688 349.175781 416.058594 349.175781 Z M 394.226562 348.785156 L 415.882812 348.785156 L 415.882812 327.144531 L 394.226562 327.144531 Z M 394.226562 348.785156 " fill-opacity="1" fill-rule="nonzero"/><g clip-path="url(#46f3cf002f)"><path fill="#000000" d="M 424.175781 379.226562 C 423.488281 379.226562 422.921875 378.65625 422.921875 377.972656 L 422.921875 372.265625 L 417.257812 370.230469 C 416.765625 370.050781 416.433594 369.582031 416.433594 369.035156 L 416.433594 359.035156 L 412.628906 359.035156 L 412.628906 377.953125 C 412.628906 378.636719 412.0625 379.207031 411.375 379.207031 C 410.691406 379.207031 410.121094 378.636719 410.121094 377.953125 L 410.121094 359.015625 L 406.320312 359.015625 L 406.320312 377.953125 C 406.320312 378.636719 405.75 379.207031 405.0625 379.207031 C 404.378906 379.207031 403.808594 378.636719 403.808594 377.953125 L 403.808594 359.015625 L 400.007812 359.015625 L 400.007812 377.953125 C 400.007812 378.636719 399.4375 379.207031 398.753906 379.207031 C 398.066406 379.207031 397.5 378.636719 397.5 377.953125 L 397.5 359.015625 L 393.695312 359.015625 L 393.695312 369.011719 C 393.695312 369.542969 393.363281 370.011719 392.871094 370.210938 L 387.207031 372.246094 L 387.207031 377.953125 C 387.207031 378.636719 386.640625 379.207031 385.953125 379.207031 C 385.265625 379.207031 384.699219 378.636719 384.699219 377.953125 L 384.699219 371.367188 C 384.699219 370.835938 385.03125 370.367188 385.523438 370.171875 L 391.1875 368.132812 L 391.1875 359.015625 L 385.246094 359.015625 C 384.5625 359.015625 383.992188 358.449219 383.992188 357.761719 L 383.992188 351.863281 L 374.878906 351.863281 L 372.839844 357.527344 C 372.664062 358.019531 372.175781 358.351562 371.644531 358.351562 L 365.058594 358.351562 C 364.371094 358.351562 363.804688 357.78125 363.804688 357.097656 C 363.804688 356.410156 364.371094 355.84375 365.058594 355.84375 L 370.761719 355.84375 L 372.800781 350.175781 C 372.976562 349.6875 373.46875 349.355469 373.996094 349.355469 L 383.992188 349.355469 L 383.992188 345.550781 L 365.058594 345.550781 C 364.371094 345.550781 363.804688 344.984375 363.804688 344.296875 C 363.804688 343.609375 364.371094 343.042969 365.058594 343.042969 L 383.992188 343.042969 L 383.992188 339.238281 L 365.058594 339.238281 C 364.371094 339.238281 363.804688 338.671875 363.804688 337.984375 C 363.804688 337.300781 364.371094 336.730469 365.058594 336.730469 L 383.992188 336.730469 L 383.992188 332.929688 L 365.058594 332.929688 C 364.371094 332.929688 363.804688 332.359375 363.804688 331.675781 C 363.804688 330.988281 364.371094 330.417969 365.058594 330.417969 L 383.992188 330.417969 L 383.992188 326.617188 L 373.996094 326.617188 C 373.46875 326.617188 372.996094 326.285156 372.800781 325.792969 L 370.761719 320.128906 L 365.058594 320.128906 C 364.371094 320.128906 363.804688 319.5625 363.804688 318.875 C 363.804688 318.1875 364.371094 317.621094 365.058594 317.621094 L 371.644531 317.621094 C 372.175781 317.621094 372.644531 317.953125 372.839844 318.445312 L 374.878906 324.109375 L 383.992188 324.109375 L 383.992188 318.167969 C 383.992188 317.484375 384.5625 316.914062 385.246094 316.914062 L 391.148438 316.914062 L 391.148438 307.800781 L 385.484375 305.761719 C 384.992188 305.585938 384.660156 305.09375 384.660156 304.566406 L 384.660156 297.980469 C 384.660156 297.292969 385.226562 296.726562 385.914062 296.726562 C 386.601562 296.726562 387.167969 297.292969 387.167969 297.980469 L 387.167969 303.664062 L 392.832031 305.703125 C 393.324219 305.878906 393.65625 306.371094 393.65625 306.898438 L 393.65625 316.894531 L 397.460938 316.894531 L 397.460938 297.980469 C 397.460938 297.292969 398.027344 296.726562 398.714844 296.726562 C 399.398438 296.726562 399.96875 297.292969 399.96875 297.980469 L 399.96875 316.914062 L 403.769531 316.914062 L 403.769531 297.980469 C 403.769531 297.292969 404.339844 296.726562 405.023438 296.726562 C 405.710938 296.726562 406.28125 297.292969 406.28125 297.980469 L 406.28125 316.914062 L 410.082031 316.914062 L 410.082031 297.980469 C 410.082031 297.292969 410.652344 296.726562 411.335938 296.726562 C 412.023438 296.726562 412.589844 297.292969 412.589844 297.980469 L 412.589844 316.914062 L 416.394531 316.914062 L 416.394531 306.917969 C 416.394531 306.390625 416.726562 305.917969 417.214844 305.722656 L 422.921875 303.664062 L 422.921875 297.980469 C 422.921875 297.292969 423.488281 296.726562 424.175781 296.726562 C 424.859375 296.726562 425.429688 297.292969 425.429688 297.980469 L 425.429688 304.566406 C 425.429688 305.09375 425.097656 305.566406 424.605469 305.761719 L 418.941406 307.800781 L 418.941406 316.914062 L 424.839844 316.914062 C 425.527344 316.914062 426.097656 317.484375 426.097656 318.167969 L 426.097656 324.070312 L 435.210938 324.070312 L 437.25 318.402344 C 437.425781 317.914062 437.914062 317.582031 438.445312 317.582031 L 445.03125 317.582031 C 445.714844 317.582031 446.285156 318.148438 446.285156 318.835938 C 446.285156 319.523438 445.714844 320.089844 445.03125 320.089844 L 439.328125 320.089844 L 437.289062 325.753906 C 437.113281 326.246094 436.621094 326.578125 436.09375 326.578125 L 426.097656 326.578125 L 426.097656 330.378906 L 445.03125 330.378906 C 445.714844 330.378906 446.285156 330.949219 446.285156 331.636719 C 446.285156 332.320312 445.714844 332.890625 445.03125 332.890625 L 426.097656 332.890625 L 426.097656 336.691406 L 445.03125 336.691406 C 445.714844 336.691406 446.285156 337.261719 446.285156 337.945312 C 446.285156 338.632812 445.714844 339.199219 445.03125 339.199219 L 426.097656 339.199219 L 426.097656 343.003906 L 445.03125 343.003906 C 445.714844 343.003906 446.285156 343.570312 446.285156 344.257812 C 446.285156 344.945312 445.714844 345.511719 445.03125 345.511719 L 426.097656 345.511719 L 426.097656 349.316406 L 436.09375 349.316406 C 436.621094 349.316406 437.09375 349.648438 437.289062 350.136719 L 439.328125 355.800781 L 445.03125 355.800781 C 445.714844 355.800781 446.285156 356.371094 446.285156 357.058594 C 446.285156 357.742188 445.714844 358.3125 445.03125 358.3125 L 438.445312 358.3125 C 437.914062 358.3125 437.445312 357.976562 437.25 357.488281 L 435.210938 351.824219 L 426.097656 351.824219 L 426.097656 357.761719 C 426.097656 358.449219 425.527344 359.015625 424.839844 359.015625 L 418.941406 359.015625 L 418.941406 368.132812 L 424.605469 370.171875 C 425.097656 370.347656 425.429688 370.816406 425.429688 371.367188 L 425.429688 377.953125 C 425.449219 378.65625 424.878906 379.226562 424.175781 379.226562 Z M 412.433594 358.644531 L 416.628906 358.644531 C 416.746094 358.644531 416.824219 358.722656 416.824219 358.839844 L 416.824219 369.035156 C 416.824219 369.40625 417.058594 369.71875 417.394531 369.855469 L 423.175781 371.953125 C 423.253906 371.972656 423.3125 372.050781 423.3125 372.128906 L 423.3125 377.953125 C 423.3125 378.421875 423.703125 378.8125 424.175781 378.8125 C 424.644531 378.8125 425.039062 378.421875 425.039062 377.953125 L 425.039062 371.367188 C 425.039062 370.992188 424.800781 370.679688 424.46875 370.542969 L 418.6875 368.445312 C 418.609375 368.425781 418.550781 368.347656 418.550781 368.269531 L 418.550781 358.820312 C 418.550781 358.703125 418.628906 358.625 418.746094 358.625 L 424.839844 358.625 C 425.3125 358.625 425.703125 358.234375 425.703125 357.761719 L 425.703125 351.667969 C 425.703125 351.550781 425.78125 351.472656 425.898438 351.472656 L 435.347656 351.472656 C 435.425781 351.472656 435.503906 351.53125 435.523438 351.609375 L 437.621094 357.390625 C 437.738281 357.742188 438.070312 357.957031 438.445312 357.957031 L 445.03125 357.957031 C 445.5 357.957031 445.894531 357.566406 445.894531 357.097656 C 445.894531 356.625 445.5 356.234375 445.03125 356.234375 L 439.1875 356.234375 C 439.109375 356.234375 439.03125 356.175781 439.011719 356.097656 L 436.914062 350.316406 C 436.796875 349.960938 436.464844 349.746094 436.09375 349.746094 L 425.898438 349.746094 C 425.78125 349.746094 425.703125 349.667969 425.703125 349.550781 L 425.703125 345.355469 C 425.703125 345.238281 425.78125 345.160156 425.898438 345.160156 L 445.03125 345.160156 C 445.5 345.160156 445.894531 344.765625 445.894531 344.296875 C 445.894531 343.828125 445.5 343.433594 445.03125 343.433594 L 425.898438 343.433594 C 425.78125 343.433594 425.703125 343.355469 425.703125 343.238281 L 425.703125 339.042969 C 425.703125 338.925781 425.78125 338.847656 425.898438 338.847656 L 445.03125 338.847656 C 445.5 338.847656 445.894531 338.457031 445.894531 337.984375 C 445.894531 337.515625 445.5 337.125 445.03125 337.125 L 425.898438 337.125 C 425.78125 337.125 425.703125 337.042969 425.703125 336.925781 L 425.703125 332.734375 C 425.703125 332.613281 425.78125 332.535156 425.898438 332.535156 L 445.03125 332.535156 C 445.5 332.535156 445.894531 332.144531 445.894531 331.675781 C 445.894531 331.203125 445.5 330.8125 445.03125 330.8125 L 425.898438 330.8125 C 425.78125 330.8125 425.703125 330.734375 425.703125 330.617188 L 425.703125 326.421875 C 425.703125 326.304688 425.78125 326.226562 425.898438 326.226562 L 436.09375 326.226562 C 436.464844 326.226562 436.777344 325.988281 436.914062 325.65625 L 439.011719 319.875 C 439.03125 319.796875 439.109375 319.738281 439.1875 319.738281 L 445.03125 319.738281 C 445.5 319.738281 445.894531 319.34375 445.894531 318.875 C 445.894531 318.402344 445.5 318.011719 445.03125 318.011719 L 438.445312 318.011719 C 438.070312 318.011719 437.757812 318.246094 437.621094 318.582031 L 435.523438 324.363281 C 435.503906 324.441406 435.425781 324.5 435.347656 324.5 L 425.898438 324.5 C 425.78125 324.5 425.703125 324.421875 425.703125 324.304688 L 425.703125 318.167969 C 425.703125 317.699219 425.3125 317.304688 424.839844 317.304688 L 418.746094 317.304688 C 418.628906 317.304688 418.550781 317.226562 418.550781 317.109375 L 418.550781 307.664062 C 418.550781 307.585938 418.609375 307.507812 418.6875 307.488281 L 424.46875 305.390625 C 424.800781 305.273438 425.039062 304.9375 425.039062 304.566406 L 425.039062 297.980469 C 425.039062 297.507812 424.644531 297.117188 424.175781 297.117188 C 423.703125 297.117188 423.3125 297.507812 423.3125 297.980469 L 423.3125 303.820312 C 423.3125 303.898438 423.253906 303.976562 423.175781 303.996094 L 417.394531 306.09375 C 417.058594 306.210938 416.824219 306.546875 416.824219 306.917969 L 416.824219 317.109375 C 416.824219 317.226562 416.746094 317.304688 416.628906 317.304688 L 412.433594 317.304688 C 412.316406 317.304688 412.238281 317.226562 412.238281 317.109375 L 412.238281 297.980469 C 412.238281 297.507812 411.847656 297.117188 411.375 297.117188 C 410.90625 297.117188 410.511719 297.507812 410.511719 297.980469 L 410.511719 317.109375 C 410.511719 317.226562 410.433594 317.304688 410.316406 317.304688 L 406.121094 317.304688 C 406.003906 317.304688 405.925781 317.226562 405.925781 317.109375 L 405.925781 297.980469 C 405.925781 297.507812 405.535156 297.117188 405.0625 297.117188 C 404.59375 297.117188 404.203125 297.507812 404.203125 297.980469 L 404.203125 317.109375 C 404.203125 317.226562 404.125 317.304688 404.003906 317.304688 L 399.8125 317.304688 C 399.695312 317.304688 399.613281 317.226562 399.613281 317.109375 L 399.613281 297.980469 C 399.613281 297.507812 399.222656 297.117188 398.753906 297.117188 C 398.28125 297.117188 397.890625 297.507812 397.890625 297.980469 L 397.890625 317.109375 C 397.890625 317.226562 397.8125 317.304688 397.695312 317.304688 L 393.5 317.304688 C 393.382812 317.304688 393.304688 317.226562 393.304688 317.109375 L 393.304688 306.917969 C 393.304688 306.546875 393.070312 306.230469 392.734375 306.09375 L 386.953125 303.996094 C 386.875 303.976562 386.816406 303.898438 386.816406 303.820312 L 386.816406 297.980469 C 386.816406 297.507812 386.421875 297.117188 385.953125 297.117188 C 385.484375 297.117188 385.089844 297.507812 385.089844 297.980469 L 385.089844 304.566406 C 385.089844 304.9375 385.324219 305.253906 385.660156 305.390625 L 391.441406 307.488281 C 391.519531 307.507812 391.578125 307.585938 391.578125 307.664062 L 391.578125 317.109375 C 391.578125 317.226562 391.5 317.304688 391.382812 317.304688 L 385.246094 317.304688 C 384.777344 317.304688 384.386719 317.699219 384.386719 318.167969 L 384.386719 324.265625 C 384.386719 324.382812 384.308594 324.460938 384.1875 324.460938 L 374.742188 324.460938 C 374.664062 324.460938 374.585938 324.402344 374.566406 324.324219 L 372.46875 318.542969 C 372.351562 318.1875 372.015625 317.972656 371.644531 317.972656 L 365.058594 317.972656 C 364.589844 317.972656 364.195312 318.363281 364.195312 318.835938 C 364.195312 319.304688 364.589844 319.699219 365.058594 319.699219 L 370.898438 319.699219 C 370.976562 319.699219 371.058594 319.757812 371.078125 319.835938 L 373.171875 325.617188 C 373.292969 325.96875 373.625 326.1875 373.996094 326.1875 L 384.1875 326.1875 C 384.308594 326.1875 384.386719 326.265625 384.386719 326.382812 L 384.386719 330.578125 C 384.386719 330.695312 384.308594 330.773438 384.1875 330.773438 L 365.058594 330.773438 C 364.589844 330.773438 364.195312 331.164062 364.195312 331.636719 C 364.195312 332.105469 364.589844 332.496094 365.058594 332.496094 L 384.1875 332.496094 C 384.308594 332.496094 384.386719 332.574219 384.386719 332.691406 L 384.386719 336.886719 C 384.386719 337.003906 384.308594 337.082031 384.1875 337.082031 L 365.058594 337.082031 C 364.589844 337.082031 364.195312 337.476562 364.195312 337.945312 C 364.195312 338.417969 364.589844 338.808594 365.058594 338.808594 L 384.1875 338.808594 C 384.308594 338.808594 384.386719 338.886719 384.386719 339.003906 L 384.386719 343.199219 C 384.386719 343.316406 384.308594 343.394531 384.1875 343.394531 L 365.058594 343.394531 C 364.589844 343.394531 364.195312 343.789062 364.195312 344.257812 C 364.195312 344.726562 364.589844 345.121094 365.058594 345.121094 L 384.1875 345.121094 C 384.308594 345.121094 384.386719 345.199219 384.386719 345.316406 L 384.386719 349.511719 C 384.386719 349.628906 384.308594 349.707031 384.1875 349.707031 L 373.996094 349.707031 C 373.625 349.707031 373.3125 349.941406 373.171875 350.273438 L 371.078125 356.058594 C 371.058594 356.136719 370.976562 356.195312 370.898438 356.195312 L 365.058594 356.195312 C 364.589844 356.195312 364.195312 356.585938 364.195312 357.058594 C 364.195312 357.527344 364.589844 357.917969 365.058594 357.917969 L 371.644531 357.917969 C 372.015625 357.917969 372.332031 357.683594 372.46875 357.351562 L 374.566406 351.570312 C 374.585938 351.492188 374.664062 351.433594 374.742188 351.433594 L 384.1875 351.433594 C 384.308594 351.433594 384.386719 351.511719 384.386719 351.628906 L 384.386719 357.761719 C 384.386719 358.234375 384.777344 358.625 385.246094 358.625 L 391.34375 358.625 C 391.460938 358.625 391.539062 358.703125 391.539062 358.820312 L 391.539062 368.269531 C 391.539062 368.347656 391.480469 368.425781 391.402344 368.445312 L 385.621094 370.542969 C 385.285156 370.660156 385.050781 370.992188 385.050781 371.367188 L 385.050781 377.953125 C 385.050781 378.421875 385.445312 378.8125 385.914062 378.8125 C 386.382812 378.8125 386.777344 378.421875 386.777344 377.953125 L 386.777344 372.109375 C 386.777344 372.03125 386.835938 371.953125 386.914062 371.933594 L 392.695312 369.835938 C 393.027344 369.71875 393.265625 369.386719 393.265625 369.011719 L 393.265625 358.820312 C 393.265625 358.703125 393.34375 358.625 393.460938 358.625 L 397.65625 358.625 C 397.773438 358.625 397.851562 358.703125 397.851562 358.820312 L 397.851562 377.953125 C 397.851562 378.421875 398.242188 378.8125 398.714844 378.8125 C 399.183594 378.8125 399.574219 378.421875 399.574219 377.953125 L 399.574219 358.820312 C 399.574219 358.703125 399.65625 358.625 399.773438 358.625 L 403.964844 358.625 C 404.085938 358.625 404.164062 358.703125 404.164062 358.820312 L 404.164062 377.953125 C 404.164062 378.421875 404.554688 378.8125 405.023438 378.8125 C 405.496094 378.8125 405.886719 378.421875 405.886719 377.953125 L 405.886719 358.820312 C 405.886719 358.703125 405.964844 358.625 406.082031 358.625 L 410.277344 358.625 C 410.394531 358.625 410.472656 358.703125 410.472656 358.820312 L 410.472656 377.953125 C 410.472656 378.421875 410.867188 378.8125 411.335938 378.8125 C 411.808594 378.8125 412.199219 378.421875 412.199219 377.953125 L 412.199219 358.820312 C 412.238281 358.722656 412.316406 358.644531 412.433594 358.644531 Z M 423.78125 356.898438 L 386.304688 356.898438 C 386.1875 356.898438 386.109375 356.820312 386.109375 356.703125 L 386.109375 319.226562 C 386.109375 319.109375 386.1875 319.03125 386.304688 319.03125 L 423.78125 319.03125 C 423.902344 319.03125 423.980469 319.109375 423.980469 319.226562 L 423.980469 356.703125 C 423.980469 356.800781 423.882812 356.898438 423.78125 356.898438 Z M 386.503906 356.507812 L 423.585938 356.507812 L 423.585938 319.421875 L 386.503906 319.421875 Z M 386.503906 356.507812 " fill-opacity="1" fill-rule="nonzero"/></g></svg>